<svg width="24" height="24" role="presentation" focusable="false" viewBox="0 0 24 24" xmlns="http://www.w3.org/2000/svg"><path d="M18.7361 4.34202C19.34 4.16086 19.9475 4.57579 20.0169 5.1837L20.0234 5.29985V17.3102C20.0234 17.9406 19.4514 18.4033 18.8492 18.2951L18.7361 18.268L11.0234 15.9532V17.7999C11.0234 19.1806 9.90415 20.2999 8.52344 20.2999C7.19795 20.2999 6.1134 19.2683 6.02876 17.9642L6.02344 17.7999V15.3102C4.96908 15.3102 4.10527 14.4943 4.02892 13.4594L4.02344 13.3102V9.29985C4.02344 8.24549 4.83932 7.38168 5.87418 7.30534L6.02344 7.29985L8.87544 7.29919L18.7361 4.34202ZM8.87644 15.3092H8.02344V17.7999C8.02344 18.076 8.2473 18.2999 8.52344 18.2999C8.7689 18.2999 8.97305 18.123 9.01538 17.8897L9.02344 17.7999V15.3532L8.87644 15.3092ZM18.0234 6.64285L10.0234 9.04285V13.5659L18.0234 15.9659V6.64285ZM8.02344 9.29985H6.02344V13.3102L6.93934 13.3082L7.02344 13.3047L7.10644 13.3092L8.02344 13.3099V9.29985Z" fill="currentColor"/></svg>